HIERARCHY
ROOT Hips
{
	OFFSET 0.000000 0.000000 0.000000 
	CHANNELS 6 Xposition Yposition Zposition Yrotation Zrotation Xrotation 
	JOINT Lumbar
	{
		OFFSET 0.000000 0.000000 0.000000 
		CHANNELS 3 Zrotation Xrotation Yrotation
		JOINT Neck
		{
			OFFSET 0.000000 0.445665 0.000000 
			CHANNELS 3 Zrotation Xrotation Yrotation
			End Site
			{
				OFFSET 0.000000 0.227535 0.000000 
			}
		}
		JOINT RightShoulder
		{
			OFFSET 0.019635 0.377685 0.194865 
			CHANNELS 3 Zrotation Xrotation Yrotation
			JOINT RightElbow
			{
				OFFSET 0.000000 -0.243375 0.000000 
				CHANNELS 2 Zrotation Yrotation
				JOINT RightWrist
				{
					OFFSET 0.000000 -0.264825 0.000000 
					CHANNELS 2 Zrotation Xrotation
					End Site
					{
						OFFSET 0.006600 -0.176220 0.000990 
					}
				}
			}
		}
		JOINT LeftShoulder
		{
			OFFSET 0.019635 0.377685 -0.194865 
			CHANNELS 3 Zrotation Xrotation Yrotation
			JOINT LeftElbow
			{
				OFFSET 0.000000 -0.243375 0.000000 
				CHANNELS 2 Zrotation Yrotation
				JOINT LeftWrist
				{
					OFFSET 0.000000 -0.264825 0.000000 
					CHANNELS 2 Zrotation Xrotation
					End Site
					{
						OFFSET 0.006600 -0.176220 -0.000990 
					}
				}
			}
		}
	}
	JOINT RightHip
	{
		OFFSET 0.052140 -0.069960 0.075570 
		CHANNELS 3 Zrotation Xrotation Yrotation
		JOINT RightKnee
		{
			OFFSET 0.000000 -0.402270 0.000000 
			CHANNELS 1 Zrotation
			JOINT RightAnkle
			{
				OFFSET 0.000000 -0.404085 0.000000 
				CHANNELS 3 Zrotation Xrotation Yrotation
				End Site
				{
					OFFSET 0.204105 -0.089430 0.008415 
				}
			}
		}
	}
	JOINT LeftHip
	{
		OFFSET 0.052140 -0.069960 -0.075570 
		CHANNELS 3 Zrotation Xrotation Yrotation
		JOINT LeftKnee
		{
			OFFSET 0.000000 -0.402270 0.000000 
			CHANNELS 1 Zrotation
			JOINT LeftAnkle
			{
				OFFSET 0.000000 -0.404085 0.000000 
				CHANNELS 3 Zrotation Xrotation Yrotation
				End Site
				{
					OFFSET 0.204105 -0.089430 -0.008415 
				}
			}
		}
	}
}
MOTION
Frames: 22
Frame Time: 0.02
-0.00175 0.00021 9e-05 24.18837 -30.39869 -5.50455 48.08923 1.72571 -6.69652 7.32261 -1.9648 -0.41037 -22.16187 -56.18429 31.32138 86.69955 91.43759 29.56054 -2.49928 11.2869 12.34554 -11.73878 51.39212 -92.18868 7.73113 -0.02625 43.46899 -1.72572 -6.72774 -19.50519 -6.5842 -3.81503 -2.63111 47.49911 3.82824 1.7884 -24.99333 -6.71136 2.72467 2.07534
-0.00201 0.00016 -0.00015 24.12068 -30.3175 -5.46953 48.09686 1.78652 -6.99547 6.88887 -2.04549 -0.41121 -24.33058 -55.5949 30.10277 86.9861 90.64971 28.07829 -2.56367 10.24293 12.68204 -11.79661 51.51647 -91.60232 7.19698 -0.00782 43.3911 -1.78936 -6.84748 -19.49869 -6.58025 -3.7896 -2.61837 47.40452 3.80412 1.83809 -24.99423 -6.72022 2.7304 2.07607
-0.00227 0.00012 -0.0004 24.05296 -30.23653 -5.43449 48.10453 1.84728 -7.29409 6.45575 -2.12613 -0.41206 -26.4952 -55.00604 28.88574 87.27271 89.86422 26.60031 -2.62784 9.19944 13.01798 -11.85364 51.63989 -91.01779 6.66442 0.0105 43.31345 -1.85293 -6.96678 -19.49218 -6.5763 -3.76423 -2.60565 47.31017 3.78003 1.88799 -24.99513 -6.72906 2.7361 2.0768
-0.00253 8e-05 -0.00065 23.98544 -30.15559 -5.39956 48.11215 1.90793 -7.59222 6.02324 -2.20661 -0.4129 -28.65765 -54.41824 27.67051 87.55851 89.07877 25.12265 -2.692 8.15827 13.35351 -11.91114 51.76379 -90.4333 6.13194 0.02883 43.2358 -1.9164 -7.08616 -19.48569 -6.57236 -3.73888 -2.59294 47.21587 3.75596 1.93756 -24.99603 -6.73789 2.74181 2.07754
-0.00279 4e-05 -0.00089 23.91803 -30.07444 -5.36471 48.11968 1.96858 -7.89045 5.59037 -2.28706 -0.41374 -30.8232 -53.83042 26.45457 87.84395 88.2909 23.64065 -2.75646 7.11756 13.68947 -11.9698 51.88878 -89.8468 5.5978 0.04737 43.1579 -1.97988 -7.20597 -19.47921 -6.56841 -3.71349 -2.58022 47.12134 3.73191 1.98688 -24.99691 -6.74673 2.74754 2.07828
-0.00305 -1e-05 -0.00114 23.84964 -29.99382 -5.32926 48.12765 2.02957 -8.18987 5.15674 -2.36806 -0.41459 -32.98571 -53.23944 25.23538 88.13303 87.51046 22.1711 -2.82005 6.06827 14.02538 -12.02347 52.00887 -89.26637 5.06854 0.06527 43.0808 -2.04362 -7.32416 -19.47264 -6.56449 -3.68814 -2.5675 47.02736 3.70775 2.03804 -24.99786 -6.75556 2.75317 2.07898
-0.00331 -5e-05 -0.00138 23.78335 -29.91225 -5.29506 48.13477 2.0898 -8.48656 4.72518 -2.4479 -0.41541 -35.1519 -52.65537 24.02392 88.41433 86.71606 20.67868 -2.88516 5.03762 14.36089 -12.08677 52.13878 -88.67479 4.53032 0.08425 43.00218 -2.10679 -7.44558 -19.46627 -6.5605 -3.66273 -2.55478 46.9324 3.68378 2.08523 -24.99868 -6.76441 2.75902 2.07977
-0.00357 -9e-05 -0.00163 23.71501 -29.83152 -5.25969 48.14261 2.15076 -8.78578 4.29158 -2.52876 -0.41628 -37.31481 -52.06514 22.80561 88.70306 85.9343 19.20634 -2.94914 3.98937 14.69697 -12.14185 52.25948 -88.09272 3.99986 0.10258 42.92495 -2.17047 -7.56383 -19.4597 -6.55658 -3.63739 -2.54207 46.8383 3.65971 2.13646 -24.99962 -6.77324 2.76462 2.08046
-0.00383 -0.00013 -0.00188 23.64454 -29.75195 -5.22292 48.15158 2.21252 -9.08831 3.85571 -2.61113 -0.41712 -39.47465 -51.46604 21.57696 89.00013 85.16856 17.76187 -3.0107 2.92033 15.03318 -12.18417 52.36947 -87.52512 3.48065 0.1187 42.84943 -2.23489 -7.679 -19.45292 -6.55273 -3.61208 -2.52934 46.7454 3.63521 2.19118 -25.00071 -6.78206 2.77009 2.0811
-0.00408 -0.00017 -0.00211 23.58746 -29.66608 -5.19429 48.15478 2.2694 -9.37246 3.43354 -2.68562 -0.41788 -41.65509 -50.91389 20.40177 89.24703 84.31234 16.167 -3.08305 1.973 15.36698 -12.29175 52.54274 -86.88281 2.902 0.14328 42.76412 -2.2954 -7.81428 -19.44745 -6.54844 -3.58643 -2.51664 46.64605 3.61225 2.22149 -25.00095 -6.79097 2.77683 2.08224
-0.00436 -0.00022 -0.00238 23.50144 -29.59327 -5.14846 48.1697 2.33676 -9.69487 2.98216 -2.7762 -0.41894 -43.78975 -50.26549 19.11797 89.60104 83.646 14.88324 -3.13462 0.76793 15.70685 -12.2669 52.58151 -86.3927 2.44543 0.15277 42.69941 -2.3639 -7.90561 -19.43915 -6.54512 -3.56159 -2.50393 46.56002 3.58666 2.30602 -25.00296 -6.79968 2.78057 2.08217
-0.00472 -0.00028 -0.00273 23.34083 -29.55847 -5.05521 48.22104 2.43173 -10.12737 2.452 -2.91529 -0.41968 -45.81627 -49.3263 17.4998 90.24066 83.51398 14.5117 -3.11252 -1.14485 16.05396 -11.82866 52.25607 -86.3686 2.35347 0.09633 42.69237 -2.45679 -7.88773 -19.42368 -6.544 -3.53823 -2.49067 46.51311 3.54838 2.51715 -25.01011 -6.80783 2.77889 2.08025
-0.00512 -0.00035 -0.00312 23.15023 -29.53638 -4.94477 48.28338 2.53741 -10.59708 1.89222 -3.06946 -0.42091 -47.7924 -48.29519 15.7808 90.9884 83.57024 14.4415 -3.07272 -3.31626 16.40764 -11.26453 51.7951 -86.4882 2.37804 0.0282 42.70583 -2.55721 -7.82371 -19.40527 -6.54393 -3.51582 -2.47749 46.47911 3.5083 2.78571 -25.01901 -6.81578 2.77382 2.07693
-0.0055 -0.00041 -0.00349 22.97027 -29.50708 -4.84228 48.33793 2.63904 -11.04682 1.34511 -3.21417 -0.42268 -49.78178 -47.32377 14.12964 91.69337 83.53154 14.19544 -3.05175 -5.36925 16.76608 -10.79344 51.39245 -86.51071 2.33066 -0.01714 42.70916 -2.65263 -7.77322 -19.38776 -6.54368 -3.49348 -2.46463 46.43749 3.47289 3.04391 -25.02694 -6.82384 2.76826 2.07318
-0.00586 -0.00048 -0.00387 22.80304 -29.48388 -4.739 48.40427 2.73743 -11.51074 0.80139 -3.37093 -0.4213 -51.81685 -46.27728 12.37895 92.37577 83.5325 14.11509 -2.98482 -7.42708 17.09706 -10.17979 51.00157 -86.66844 2.36601 -0.13176 42.71588 -2.75488 -7.75358 -19.37199 -6.54223 -3.46906 -2.4503 46.40322 3.42199 3.24041 -25.03558 -6.83183 2.77064 2.07357
-0.00629 -0.00054 -0.00424 22.60197 -29.45096 -4.63348 48.44867 2.84487 -11.95245 0.24346 -3.50491 -0.42652 -53.73848 -45.36443 10.81965 93.12567 83.49595 13.75999 -3.00993 -9.53538 17.48026 -9.82202 50.55626 -86.57765 2.25379 -0.11053 42.72049 -2.84447 -7.65931 -19.35204 -6.54346 -3.44913 -2.43901 46.35681 3.40195 3.57323 -25.04317 -6.83988 2.75647 2.06545
-0.00689 -0.00052 -0.00464 22.31705 -29.38847 -4.52458 48.42974 2.97645 -12.33639 -0.34544 -3.58267 -0.45042 -55.4124 -44.85047 9.74447 94.07906 83.30483 12.58308 -3.28828 -11.7247 18.06257 -10.29995 49.97616 -85.7739 1.73132 0.33845 42.71338 -2.89929 -7.36584 -19.32012 -6.55235 -3.44185 -2.43649 46.27272 3.47613 4.31787 -25.04736 -6.84853 2.69045 2.03043
-0.00756 -0.00049 -0.00504 21.9989 -29.31575 -4.41434 48.38844 3.11635 -12.69445 -0.94798 -3.63496 -0.48083 -56.96331 -44.47215 8.87733 95.08837 83.07012 11.11934 -3.66014 -13.95434 18.6871 -11.02258 49.34983 -84.71437 1.05269 0.91594 42.70361 -2.94073 -6.99987 -19.28435 -6.56381 -3.43897 -2.43695 46.17623 3.57985 5.18839 -25.05044 -6.85719 2.60917 1.98759
-0.0082 -0.00047 -0.00543 21.69421 -29.2474 -4.30555 48.35731 3.25141 -13.05586 -1.54469 -3.69219 -0.50788 -58.53649 -44.02778 7.96152 96.04358 82.8588 9.7771 -3.99358 -16.1629 19.25469 -11.56723 48.75561 -83.76517 0.42709 1.40115 42.6956 -2.98699 -6.66981 -19.25109 -6.57377 -3.43372 -2.43576 46.08596 3.66444 5.96892 -25.05406 -6.8656 2.53947 1.95081
-0.00886 -0.00044 -0.00587 21.39456 -29.18045 -4.19236 48.32618 3.3917 -13.45352 -2.14009 -3.77826 -0.53669 -60.25262 -43.60157 6.85254 97.12407 82.63978 8.47387 -4.31219 -18.39439 19.9801 -12.38457 48.1076 -82.84218 -0.12367 2.02624 42.68589 -3.03888 -6.32497 -19.21443 -6.58516 -3.43 -2.4358 45.99334 3.773 6.89017 -25.05755 -6.87502 2.45011 1.90343
-0.00949 -0.00042 -0.00619 21.07799 -29.10828 -4.08856 48.29006 3.52244 -13.76976 -2.74206 -3.79761 -0.56335 -61.63903 -43.16749 6.19155 97.95504 82.42291 7.0285 -4.68033 -20.58147 20.38897 -12.69977 47.56516 -81.80669 -0.86271 2.39407 42.67892 -3.07572 -5.99514 -19.18408 -6.59416 -3.4242 -2.43402 45.90291 3.83873 7.54709 -25.06105 -6.88237 2.39802 1.87627
-0.01003 -0.00044 -0.00618 20.71364 -29.02182 -4.0084 48.24156 3.6289 -13.86106 -3.3499 -3.64213 -0.58276 -62.17339 -42.70994 6.76214 98.08582 82.23271 5.16202 -5.19502 -22.65838 19.89261 -11.51441 47.30317 -80.47719 -2.13896 1.9897 42.67914 -3.07452 -5.71754 -19.17121 -6.59593 -3.41108 -2.42618 45.81806 3.77859 7.4466 -25.06457 -6.88352 2.45336 1.90698
